<svg xmlns="http://www.w3.org/2000/svg" xmlns:xlink="http://www.w3.org/1999/xlink" viewBox="0,0,256,256" width="128px" height="128px" fill-rule="nonzero"><defs><linearGradient x1="32" y1="9.083" x2="32" y2="54.676" gradientUnits="userSpaceOnUse" id="color-1"><stop offset="0" stop-color="#2af598"></stop><stop offset="1" stop-color="#009efd"></stop></linearGradient><linearGradient x1="32.5" y1="18" x2="32.5" y2="46" gradientUnits="userSpaceOnUse" id="color-2"><stop offset="0" stop-color="#95facc"></stop><stop offset="1" stop-color="#6ec8ff"></stop></linearGradient></defs><g fill="none" fill-rule="nonzero" stroke="none" stroke-width="1" stroke-linecap="butt" stroke-linejoin="miter" stroke-miterlimit="10" stroke-dasharray="" stroke-dashoffset="0" font-family="none" font-weight="none" font-size="none" text-anchor="none" style="mix-blend-mode: normal"><g transform="scale(4,4)"><path d="M50,55h-36c-2.757,0 -5,-2.243 -5,-5v-36c0,-2.757 2.243,-5 5,-5h36c2.757,0 5,2.243 5,5v36c0,2.757 -2.243,5 -5,5zM14,11c-1.654,0 -3,1.346 -3,3v36c0,1.654 1.346,3 3,3h36c1.654,0 3,-1.346 3,-3v-36c0,-1.654 -1.346,-3 -3,-3z" fill="url(#color-1)"></path><path d="M47.083,46l-4.275,-5.224c1.94,-2.403 3.108,-5.454 3.108,-8.776c0,-7.72 -6.28,-14 -14,-14c-7.72,0 -14,6.28 -14,14c0,7.72 6.28,14 14,14c2.444,0 4.743,-0.633 6.745,-1.738l1.422,1.738zM31.917,40.167c-4.503,0 -8.167,-3.665 -8.167,-8.167c0,-4.502 3.663,-8.167 8.167,-8.167c4.504,0 8.167,3.664 8.167,8.167c0,1.491 -0.408,2.885 -1.108,4.089l-2.392,-2.923h-7l5.272,6.443c-0.914,0.356 -1.902,0.558 -2.939,0.558z" fill="url(#color-2)"></path></g></g></svg>